<svg width="142" height="33" viewBox="0 0 142 33" fill="none" xmlns="http://www.w3.org/2000/svg">
<g clip-path="url(#clip0_105_3199)">
<path d="M36.7598 19.1036C34.8275 17.0941 33.8613 14.6113 33.8613 11.655C33.8613 8.69875 34.8275 6.27384 36.7598 4.26435C38.7307 2.1969 41.1847 1.16318 44.1218 1.16318C47.0589 1.16318 49.6578 2.25487 51.9765 4.43825L50.4693 6.0613C48.5177 4.20639 46.3922 3.27893 44.0928 3.27893C41.7934 3.27893 39.977 4.0808 38.4698 5.68452C36.982 7.28824 36.238 9.27841 36.238 11.655C36.238 14.0316 36.9916 15.9928 38.4988 17.5965C40.006 19.2196 41.8707 20.0311 44.0928 20.0311C46.3149 20.0311 48.595 19.0553 50.6432 17.1038L52.1504 18.6979C49.8897 20.9972 47.1845 22.1468 44.0348 22.1468C41.1171 22.1468 38.692 21.1324 36.7598 19.1036Z" fill="#5A6E3A"/>
<path d="M54.9019 6.81485H57.1336V15.4518L65.3362 6.81485H68.0897L61.8291 13.307L68.2636 21.799H65.6261L60.2929 14.9301L57.1336 18.1762V21.799H54.9019V6.81485Z" fill="#5A6E3A"/>
<path d="M70.4668 6.81486H72.6986V9.82909C74.2058 7.60706 76.1187 6.49605 78.4375 6.49605C80.3505 6.49605 81.9929 7.17232 83.3648 8.52486C84.8527 10.0126 85.5966 11.9448 85.5966 14.3214C85.5966 16.6981 84.8527 18.5723 83.3648 20.0601C81.9929 21.4319 80.3505 22.1179 78.4375 22.1179C76.0801 22.1179 74.1671 21.0552 72.6986 18.9297V26.4363H70.4668V6.81486ZM81.7707 18.5819C82.7948 17.4999 83.3069 16.0701 83.3069 14.2925C83.3069 12.5148 82.7851 11.1623 81.7417 10.061C80.7369 9.01757 79.5002 8.49587 78.0317 8.49587C76.5632 8.49587 75.3362 9.02723 74.2927 10.0899C73.172 11.2299 72.6116 12.6404 72.6116 14.3214C72.6116 16.0025 73.172 17.4033 74.2927 18.524C75.3362 19.5867 76.5825 20.118 78.0317 20.118C79.4809 20.118 80.7852 19.606 81.7707 18.5819Z" fill="#5A6E3A"/>
<path d="M90.1178 19.9731C88.6493 18.5047 87.915 16.6208 87.915 14.3214C87.915 12.0221 88.5913 10.2928 89.9439 8.7857C91.3352 7.25927 93.0549 6.49605 95.1031 6.49605C97.1514 6.49605 98.9677 7.26893 100.262 8.81468C101.48 10.2832 102.088 12.1574 102.088 14.4374V14.7852C102.088 14.9204 102.079 15.0653 102.059 15.2199H90.1758C90.3304 16.7464 90.9197 17.9733 91.9439 18.9008C92.91 19.7702 94.079 20.205 95.451 20.205C97.248 20.205 98.8228 19.4997 100.175 18.0892L101.567 19.3355C99.8856 21.2097 97.8277 22.1468 95.393 22.1468C93.2868 22.1468 91.5284 21.4223 90.1178 19.9731ZM99.8276 13.423C99.6923 11.9738 99.2286 10.7952 98.4363 9.88705C97.5861 8.88231 96.4558 8.37994 95.0452 8.37994C93.7699 8.37994 92.6781 8.85333 91.77 9.80011C90.8618 10.7469 90.3304 11.9545 90.1758 13.423H99.8276Z" fill="#5A6E3A"/>
<path d="M107.451 19.0167C105.557 17.0072 104.61 14.5533 104.61 11.655C104.61 8.75671 105.567 6.33181 107.48 4.32232C109.47 2.21623 111.972 1.16318 114.987 1.16318C118.001 1.16318 120.494 2.20656 122.465 4.29334C124.358 6.30282 125.305 8.75671 125.305 11.655C125.305 14.5533 124.349 16.9782 122.436 18.9877C120.445 21.0938 117.943 22.1468 114.929 22.1468C111.914 22.1468 109.422 21.1035 107.451 19.0167ZM120.697 17.5965C122.185 15.9928 122.928 14.0123 122.928 11.655C122.928 9.29773 122.175 7.34621 120.668 5.74249C119.141 4.10012 117.228 3.27893 114.929 3.27893C112.629 3.27893 110.726 4.09046 109.219 5.7135C107.731 7.31723 106.987 9.29773 106.987 11.655C106.987 14.0123 107.741 15.9638 109.248 17.5675C110.774 19.2099 112.687 20.0311 114.987 20.0311C117.286 20.0311 119.189 19.2196 120.697 17.5965Z" fill="#5A6E3A"/>
<path d="M128.899 6.81485H131.131V13.2781H139.768V6.81485H142V21.799H139.768V15.2489H131.131V21.799H128.899V6.81485Z" fill="#5A6E3A"/>
<path d="M34.5089 30.465C34.1224 30.0631 33.9292 29.5665 33.9292 28.9752C33.9292 28.384 34.1224 27.899 34.5089 27.4971C34.9031 27.0836 35.3939 26.8769 35.9813 26.8769C36.5687 26.8769 37.0885 27.0952 37.5522 27.5319L37.2508 27.8565C36.8605 27.4855 36.4354 27.3 35.9755 27.3C35.5156 27.3 35.1523 27.4604 34.8509 27.7811C34.5533 28.1019 34.4045 28.4999 34.4045 28.9752C34.4045 29.4505 34.5553 29.8428 34.8567 30.1635C35.1581 30.4881 35.5311 30.6504 35.9755 30.6504C36.4199 30.6504 36.8759 30.4553 37.2856 30.065L37.587 30.3838C37.1349 30.8437 36.5938 31.0736 35.9639 31.0736C35.3803 31.0736 34.8953 30.8707 34.5089 30.465Z" fill="#5A6E3A"/>
<path d="M38.3096 28.0072H38.7559V30.378L40.5356 28.0072H40.9703V31.004H40.524V28.6332L38.7385 31.004H38.3096V28.0072Z" fill="#5A6E3A"/>
<path d="M42.2228 30.6099C41.9291 30.3046 41.7822 29.9375 41.7822 29.5085C41.7822 29.0796 41.9291 28.7125 42.2228 28.4072C42.5204 28.098 42.8856 27.9434 43.3184 27.9434C43.7821 27.9434 44.1821 28.1212 44.5183 28.4767L44.2343 28.7781C43.9561 28.4845 43.6488 28.3376 43.3126 28.3376C43.0112 28.3376 42.7561 28.4516 42.5474 28.6796C42.3426 28.9037 42.2402 29.18 42.2402 29.5085C42.2402 29.837 42.3465 30.1075 42.559 30.3316C42.7677 30.5596 43.0286 30.6736 43.3416 30.6736C43.6546 30.6736 43.9638 30.5229 44.2459 30.2215L44.5415 30.4939C44.1937 30.8804 43.786 31.0736 43.3184 31.0736C42.8856 31.0736 42.5204 30.919 42.2228 30.6099Z" fill="#5A6E3A"/>
<path d="M46.0021 28.4014H44.9297V28.0072H47.5267V28.4014H46.4543V31.004H46.0021V28.4014Z" fill="#5A6E3A"/>
<path d="M48.317 30.6389C48.0233 30.3452 47.8765 29.9684 47.8765 29.5085C47.8765 29.0487 48.0117 28.7028 48.2822 28.4014C48.5605 28.0961 48.9044 27.9434 49.3141 27.9434C49.7237 27.9434 50.087 28.098 50.3459 28.4072C50.5894 28.7009 50.7111 29.0757 50.7111 29.5317V29.6013C50.7111 29.6283 50.7092 29.6573 50.7053 29.6882H48.3286C48.3595 29.9935 48.4774 30.2389 48.6822 30.4244C48.8755 30.5983 49.1093 30.6852 49.3837 30.6852C49.7431 30.6852 50.058 30.5442 50.3285 30.2621L50.6068 30.5113C50.2706 30.8862 49.859 31.0736 49.3721 31.0736C48.9508 31.0736 48.5991 30.9287 48.317 30.6389ZM50.259 29.3288C50.2319 29.039 50.1392 28.8033 49.9807 28.6216C49.8107 28.4207 49.5846 28.3202 49.3025 28.3202C49.0474 28.3202 48.8291 28.4149 48.6474 28.6042C48.4658 28.7936 48.3595 29.0351 48.3286 29.3288H50.259Z" fill="#5A6E3A"/>
<path d="M51.4937 28.0072H51.9168L53.0356 29.5839L54.1544 28.0072H54.5834V31.004H54.1312V28.7202L53.024 30.2389L51.9284 28.7202V31.004H51.4937V28.0072Z" fill="#5A6E3A"/>
<path d="M55.7004 30.8301C55.4685 30.6562 55.3525 30.4205 55.3525 30.123C55.3525 29.8099 55.4704 29.5665 55.7062 29.3926C55.9342 29.2264 56.2433 29.1433 56.6336 29.1433C56.9428 29.1433 57.2481 29.1858 57.5495 29.2709V29.1781C57.5495 28.6371 57.2539 28.3666 56.6626 28.3666C56.3689 28.3666 56.0656 28.4381 55.7525 28.5811L55.6192 28.2159C55.9902 28.0458 56.3535 27.9608 56.709 27.9608C57.1341 27.9608 57.4568 28.071 57.6771 28.2912C57.8858 28.4999 57.9901 28.7936 57.9901 29.1723V31.004H57.5495V30.5577C57.2829 30.8978 56.9235 31.0678 56.4713 31.0678C56.166 31.0678 55.909 30.9886 55.7004 30.8301ZM57.2655 30.4823C57.4587 30.3316 57.5553 30.1384 57.5553 29.9027V29.6245C57.2616 29.5394 56.9699 29.4969 56.68 29.4969C56.4056 29.4969 56.1912 29.553 56.0366 29.665C55.882 29.7732 55.8047 29.922 55.8047 30.1114C55.8047 30.3007 55.8801 30.4398 56.0308 30.5519C56.1699 30.6562 56.3457 30.7084 56.5583 30.7084C56.8365 30.7084 57.0723 30.6331 57.2655 30.4823Z" fill="#5A6E3A"/>
<path d="M60.4072 30.4939L60.7029 30.2157C60.9888 30.5287 61.2903 30.6852 61.6072 30.6852C61.8932 30.6852 62.1405 30.5886 62.3492 30.3954C62.5579 30.2022 62.6777 29.9645 62.7086 29.6824H61.3405V29.3056H62.7028C62.6719 29.0351 62.5559 28.8052 62.355 28.6158C62.1502 28.4265 61.9086 28.3318 61.6304 28.3318C61.2903 28.3318 60.9811 28.4806 60.7029 28.7781L60.442 28.4883C60.7666 28.1251 61.1724 27.9434 61.6594 27.9434C62.0922 27.9434 62.4535 28.0999 62.7434 28.413C63.0293 28.7182 63.1723 29.0873 63.1723 29.5201C63.1723 29.9529 63.0255 30.3084 62.7318 30.6099C62.4303 30.919 62.0651 31.0736 61.6362 31.0736C61.1415 31.0736 60.7319 30.8804 60.4072 30.4939Z" fill="#5A6E3A"/>
<path d="M63.9839 28.0072H64.4302V29.7346L66.0708 28.0072H66.6215L65.3693 29.3056L66.6562 31.004H66.1287L65.0621 29.6302L64.4302 30.2795V31.004H63.9839V28.0072Z" fill="#5A6E3A"/>
<path d="M67.271 28.0072H67.7174V28.61C68.0188 28.1656 68.4014 27.9434 68.8651 27.9434C69.2477 27.9434 69.5762 28.0787 69.8506 28.3492C70.1482 28.6468 70.297 29.0332 70.297 29.5085C70.297 29.9838 70.1482 30.3587 69.8506 30.6562C69.5762 30.9306 69.2477 31.0678 68.8651 31.0678C68.3937 31.0678 68.0111 30.8553 67.7174 30.4302V31.9315H67.271V28.0072ZM69.5318 30.3606C69.7366 30.1442 69.839 29.8582 69.839 29.5027C69.839 29.1472 69.7347 28.8767 69.526 28.6564C69.325 28.4477 69.0777 28.3434 68.784 28.3434C68.4903 28.3434 68.2449 28.4497 68.0362 28.6622C67.812 28.8902 67.7 29.1723 67.7 29.5085C67.7 29.8447 67.812 30.1249 68.0362 30.349C68.2449 30.5616 68.4941 30.6678 68.784 30.6678C69.0738 30.6678 69.3347 30.5654 69.5318 30.3606Z" fill="#5A6E3A"/>
<path d="M71.2419 30.8301C71.01 30.6562 70.894 30.4205 70.894 30.123C70.894 29.8099 71.0119 29.5665 71.2476 29.3926C71.4757 29.2264 71.7848 29.1433 72.1751 29.1433C72.4843 29.1433 72.7896 29.1858 73.0911 29.2709V29.1781C73.0911 28.6371 72.7954 28.3666 72.2041 28.3666C71.9104 28.3666 71.6071 28.4381 71.294 28.5811L71.1607 28.2159C71.5317 28.0458 71.895 27.9608 72.2505 27.9608C72.6756 27.9608 72.9983 28.071 73.2186 28.2912C73.4273 28.4999 73.5316 28.7936 73.5316 29.1723V31.004H73.0911V30.5577C72.8244 30.8978 72.465 31.0678 72.0128 31.0678C71.7075 31.0678 71.4505 30.9886 71.2419 30.8301ZM72.807 30.4823C73.0002 30.3316 73.0969 30.1384 73.0969 29.9027V29.6245C72.8031 29.5394 72.5114 29.4969 72.2215 29.4969C71.9471 29.4969 71.7327 29.553 71.5781 29.665C71.4235 29.7732 71.3462 29.922 71.3462 30.1114C71.3462 30.3007 71.4216 30.4398 71.5723 30.5519C71.7114 30.6562 71.8872 30.7084 72.0998 30.7084C72.378 30.7084 72.6138 30.6331 72.807 30.4823Z" fill="#5A6E3A"/>
<path d="M74.4766 28.0072H74.9229V29.2998H76.6504V28.0072H77.0967V31.004H76.6504V29.694H74.9229V31.004H74.4766V28.0072Z" fill="#5A6E3A"/>
<path d="M78.0938 28.0072H78.5401V29.2998H80.2676V28.0072H80.7139V31.004H80.2676V29.694H78.5401V31.004H78.0938V28.0072Z" fill="#5A6E3A"/>
<path d="M81.966 30.6099C81.6722 30.3084 81.5254 29.9413 81.5254 29.5085C81.5254 29.0757 81.6742 28.7125 81.9717 28.4072C82.2732 28.098 82.6461 27.9434 83.0905 27.9434C83.535 27.9434 83.9079 28.0961 84.2093 28.4014C84.503 28.7067 84.6499 29.0757 84.6499 29.5085C84.6499 29.9413 84.5011 30.3046 84.2035 30.6099C83.8982 30.919 83.5234 31.0736 83.079 31.0736C82.6345 31.0736 82.2635 30.919 81.966 30.6099ZM83.8847 30.3316C84.0895 30.1114 84.1919 29.837 84.1919 29.5085C84.1919 29.18 84.0857 28.9076 83.8731 28.6796C83.6567 28.4516 83.392 28.3376 83.079 28.3376C82.7659 28.3376 82.4954 28.4516 82.2906 28.6796C82.0858 28.9037 81.9833 29.18 81.9833 29.5085C81.9833 29.837 82.0896 30.1075 82.3022 30.3316C82.5147 30.5596 82.7775 30.6736 83.0905 30.6736C83.4036 30.6736 83.676 30.5596 83.8847 30.3316Z" fill="#5A6E3A"/>
<path d="M85.4556 28.0072H87.4903V28.4014H85.9019V31.004H85.4556V28.0072Z" fill="#5A6E3A"/>
<path d="M88.2208 30.6099C87.9271 30.3084 87.7803 29.9413 87.7803 29.5085C87.7803 29.0757 87.9291 28.7125 88.2266 28.4072C88.5281 28.098 88.901 27.9434 89.3454 27.9434C89.7899 27.9434 90.1628 28.0961 90.4642 28.4014C90.7579 28.7067 90.9048 29.0757 90.9048 29.5085C90.9048 29.9413 90.756 30.3046 90.4584 30.6099C90.1531 30.919 89.7783 31.0736 89.3338 31.0736C88.8894 31.0736 88.5184 30.919 88.2208 30.6099ZM90.1396 30.3316C90.3444 30.1114 90.4468 29.837 90.4468 29.5085C90.4468 29.18 90.3406 28.9076 90.128 28.6796C89.9116 28.4516 89.6469 28.3376 89.3338 28.3376C89.0208 28.3376 88.7503 28.4516 88.5455 28.6796C88.3406 28.9037 88.2382 29.18 88.2382 29.5085C88.2382 29.837 88.3445 30.1075 88.5571 30.3316C88.7696 30.5596 89.0324 30.6736 89.3454 30.6736C89.6585 30.6736 89.9309 30.5596 90.1396 30.3316Z" fill="#5A6E3A"/>
<path d="M93.2755 31.7982L93.4262 31.4446C93.5692 31.518 93.7257 31.5547 93.8957 31.5547C94.031 31.5547 94.145 31.5141 94.2378 31.433C94.3305 31.348 94.4213 31.2011 94.5102 30.9924L93.1479 28.0072H93.6407L94.7305 30.5055L95.6928 28.0072H96.1681L94.9102 31.1026C94.7827 31.4079 94.6416 31.6262 94.487 31.7576C94.3324 31.8851 94.1411 31.9489 93.9131 31.9489C93.6851 31.9489 93.4842 31.8986 93.2755 31.7982Z" fill="#5A6E3A"/>
<path d="M96.8755 28.0072H99.4725V31.004H99.0261V28.4014H97.3218V31.004H96.8755V28.0072Z" fill="#5A6E3A"/>
<path d="M100.47 28.0072H100.916V28.61C101.218 28.1656 101.6 27.9434 102.064 27.9434C102.446 27.9434 102.775 28.0787 103.049 28.3492C103.347 28.6468 103.496 29.0332 103.496 29.5085C103.496 29.9838 103.347 30.3587 103.049 30.6562C102.775 30.9306 102.446 31.0678 102.064 31.0678C101.592 31.0678 101.21 30.8553 100.916 30.4302V31.9315H100.47V28.0072ZM102.731 30.3606C102.935 30.1442 103.038 29.8582 103.038 29.5027C103.038 29.1472 102.933 28.8767 102.725 28.6564C102.524 28.4477 102.276 28.3434 101.983 28.3434C101.689 28.3434 101.444 28.4497 101.235 28.6622C101.011 28.8902 100.899 29.1723 100.899 29.5085C100.899 29.8447 101.011 30.1249 101.235 30.349C101.444 30.5616 101.693 30.6678 101.983 30.6678C102.273 30.6678 102.533 30.5654 102.731 30.3606Z" fill="#5A6E3A"/>
<path d="M104.44 30.8301C104.208 30.6562 104.092 30.4205 104.092 30.123C104.092 29.8099 104.21 29.5665 104.446 29.3926C104.674 29.2264 104.983 29.1433 105.373 29.1433C105.683 29.1433 105.988 29.1858 106.289 29.2709V29.1781C106.289 28.6371 105.994 28.3666 105.402 28.3666C105.109 28.3666 104.805 28.4381 104.492 28.5811L104.359 28.2159C104.73 28.0458 105.093 27.9608 105.449 27.9608C105.874 27.9608 106.197 28.071 106.417 28.2912C106.626 28.4999 106.73 28.7936 106.73 29.1723V31.004H106.289V30.5577C106.023 30.8978 105.663 31.0678 105.211 31.0678C104.906 31.0678 104.649 30.9886 104.44 30.8301ZM106.005 30.4823C106.198 30.3316 106.295 30.1384 106.295 29.9027V29.6245C106.001 29.5394 105.71 29.4969 105.42 29.4969C105.145 29.4969 104.931 29.553 104.776 29.665C104.622 29.7732 104.544 29.922 104.544 30.1114C104.544 30.3007 104.62 30.4398 104.771 30.5519C104.91 30.6562 105.085 30.7084 105.298 30.7084C105.576 30.7084 105.812 30.6331 106.005 30.4823Z" fill="#5A6E3A"/>
<path d="M107.675 28.0072H109.124C109.422 28.0072 109.659 28.0748 109.837 28.2101C110.015 28.3453 110.104 28.527 110.104 28.755C110.104 29.0757 109.938 29.3056 109.605 29.4448C110.046 29.5646 110.266 29.8119 110.266 30.1867C110.266 30.4379 110.167 30.6369 109.97 30.7838C109.773 30.9306 109.509 31.004 109.176 31.004H107.675V28.0072ZM109.043 29.294C109.228 29.294 109.375 29.2535 109.483 29.1723C109.595 29.0873 109.652 28.9675 109.652 28.8129C109.652 28.6854 109.601 28.583 109.501 28.5057C109.393 28.4284 109.244 28.3898 109.054 28.3898H108.121V29.294H109.043ZM109.118 30.6215C109.331 30.6215 109.499 30.577 109.623 30.4881C109.746 30.3993 109.808 30.2756 109.808 30.1172C109.808 29.808 109.559 29.6534 109.06 29.6534H108.121V30.6215H109.118Z" fill="#5A6E3A"/>
<path d="M110.567 31.004L110.62 30.6215C110.654 30.6331 110.691 30.6427 110.73 30.6504C110.776 30.6582 110.811 30.662 110.834 30.662C111.054 30.662 111.209 30.5422 111.298 30.3027C111.429 29.9549 111.495 29.2728 111.495 28.2565V28.0072H113.617V31.004H113.17V28.4014H111.918V28.4709C111.918 29.5375 111.823 30.2601 111.634 30.6389C111.495 30.9132 111.259 31.0504 110.927 31.0504C110.811 31.0504 110.691 31.035 110.567 31.004Z" fill="#5A6E3A"/>
<path d="M114.869 30.6389C114.575 30.3452 114.428 29.9684 114.428 29.5085C114.428 29.0487 114.563 28.7028 114.834 28.4014C115.112 28.0961 115.456 27.9434 115.866 27.9434C116.275 27.9434 116.639 28.098 116.898 28.4072C117.141 28.7009 117.263 29.0757 117.263 29.5317V29.6013C117.263 29.6283 117.261 29.6573 117.257 29.6882H114.88C114.911 29.9935 115.029 30.2389 115.234 30.4244C115.427 30.5983 115.661 30.6852 115.935 30.6852C116.295 30.6852 116.61 30.5442 116.88 30.2621L117.159 30.5113C116.822 30.8862 116.411 31.0736 115.924 31.0736C115.503 31.0736 115.151 30.9287 114.869 30.6389ZM116.811 29.3288C116.784 29.039 116.691 28.8033 116.532 28.6216C116.362 28.4207 116.136 28.3202 115.854 28.3202C115.599 28.3202 115.381 28.4149 115.199 28.6042C115.018 28.7936 114.911 29.0351 114.88 29.3288H116.811Z" fill="#5A6E3A"/>
<path d="M118.045 28.0072H118.492V29.2998H120.219V28.0072H120.666V31.004H120.219V29.694H118.492V31.004H118.045V28.0072Z" fill="#5A6E3A"/>
<path d="M121.663 28.0072H122.109V30.378L123.889 28.0072H124.323V31.004H123.877V28.6332L122.092 31.004H121.663V28.0072Z" fill="#5A6E3A"/>
<path d="M125.97 29.8447C125.734 29.7906 125.545 29.6882 125.402 29.5375C125.247 29.3713 125.17 29.1723 125.17 28.9405C125.17 28.6622 125.269 28.4381 125.466 28.268C125.671 28.0942 125.949 28.0072 126.301 28.0072H127.709V31.004H127.263V29.9143H126.434L126.022 30.4592L125.605 31.004H125.054L125.97 29.8447ZM127.263 29.5375V28.4014H126.324C126.103 28.4014 125.93 28.4516 125.802 28.5521C125.678 28.6487 125.617 28.7839 125.617 28.9578C125.617 29.1317 125.684 29.2786 125.819 29.3868C125.951 29.4873 126.123 29.5375 126.335 29.5375H127.263Z" fill="#5A6E3A"/>
<path d="M7.25983 0.137193L23.6611 0.096617C23.9162 0.0927526 23.9876 0.278244 23.8002 0.450209L18.9888 5.22853L8.1796 5.26138C6.62797 5.52223 5.59227 6.61392 5.48406 8.19446C5.75071 13.5679 5.14011 19.2659 5.48406 24.6007C5.58067 26.104 6.29175 27.1764 7.76416 27.6014C11.4645 27.814 15.2035 27.6111 18.9173 27.7058C19.2207 27.8082 19.3289 28.0884 19.5241 28.2816C20.7665 29.5201 22.1906 30.807 23.35 32.0996C23.435 32.1943 23.8447 32.6406 23.8698 32.6909C23.9181 32.7855 23.9162 32.7991 23.835 32.8686L7.81053 32.9053C3.61553 32.6773 0.43692 29.4873 0.201181 25.2963C-0.12924 19.4302 0.456243 13.2587 0.201181 7.36168C0.409868 3.58423 3.49767 0.430887 7.25983 0.137193Z" fill="#5A6E3A" stroke="transparent" stroke-miterlimit="10"/>
<path d="M30.7817 32.1711L30.6078 32.2774L14.6915 16.4314L14.6548 16.3271L30.6406 0.268585L30.7817 0.343941V32.1711Z" fill="#5A6E3A" stroke="transparent" stroke-miterlimit="10"/>
</g>
<defs>
<clipPath id="clip0_105_3199">
<rect width="142" height="33" fill="white"/>
</clipPath>
</defs>
</svg>
